<svg width="110" height="116" viewBox="0 0 110 116" fill="none" xmlns="http://www.w3.org/2000/svg">
<rect x="3" y="3" width="104" height="110" rx="12" stroke="black" stroke-width="6"/>
<path d="M53.84 91.096C53.84 94.68 52.7307 97.5813 50.512 99.8C48.2933 101.933 45.392 103 41.808 103H20.56V25.304H18.64L19.92 13.4H41.808C45.392 13.4 48.2933 14.5093 50.512 16.728C52.7307 18.8613 53.84 21.72 53.84 25.304V91.096ZM41.04 25.304H32.72V91.096H41.04C41.4667 91.096 41.68 90.8827 41.68 90.456V25.944C41.68 25.5173 41.4667 25.304 41.04 25.304Z" fill="black"/>
<path d="M70.72 77.4V90.968C70.72 91.3947 70.9333 91.608 71.36 91.608H76.48C76.9067 91.608 77.12 91.3947 77.12 90.968V67.928L67.008 63.448C66.24 63.192 65.1733 62.7653 63.808 62.168C62.4427 61.4853 61.2053 60.504 60.096 59.224C59.072 57.944 58.56 56.1947 58.56 53.976V24.792C58.56 21.208 59.6693 18.3493 61.888 16.216C64.1067 13.9973 67.008 12.888 70.592 12.888H77.248C80.832 12.888 83.7333 13.9973 85.952 16.216C88.1707 18.3493 89.28 21.208 89.28 24.792V43.736L77.12 42.712V25.432C77.12 25.0053 76.9067 24.792 76.48 24.792H71.36C70.9333 24.792 70.72 25.0053 70.72 25.432V52.184L80.832 56.664C81.6 57.0053 82.6667 57.4747 84.032 58.072C85.3973 58.6693 86.592 59.608 87.616 60.888C88.7253 62.168 89.28 63.9173 89.28 66.136V91.608C89.28 95.192 88.1707 98.0933 85.952 100.312C83.7333 102.445 80.832 103.512 77.248 103.512H70.592C67.008 103.512 64.1067 102.445 61.888 100.312C59.6693 98.0933 58.56 95.192 58.56 91.608V77.4H70.72Z" fill="black"/>
</svg>
